Coordinates
version=1
nRows=12
nColumns=32
inDegrees=yes

Units are S.I. units (second, meters, Newtons, ...)
If the header above contains a line with 'inDegrees', this indicates whether rotational values are in degrees (yes) or radians (no).

endheader
time	pelvis_tilt	pelvis_list	pelvis_rotation	pelvis_tx	pelvis_ty	pelvis_tz	hip_flexion_r	hip_adduction_r	hip_rotation_r	knee_angle_r	knee_adduction_r	med_cond_adduction_r	lat_cond_adduction_r	patella_r_constrained_knee_angle	ankle_angle_r	subtalar_angle_r	mtp_angle_r	hip_flexion_l	hip_adduction_l	hip_rotation_l	knee_angle_l	knee_adduction_l	med_cond_adduction_l	lat_cond_adduction_l	patella_l_constrained_knee_angle	ankle_angle_l	subtalar_angle_l	mtp_angle_l	lumbar_extension	lumbar_bending	lumbar_rotation
      0.71500000	      2.72013081	     -5.31926508	     -8.18264324	      0.25256348	      0.90777064	      0.26288715	    -23.94088198	     -0.36179320	     -5.11584197	     -8.45456437	      3.17498669	     -0.00000000	     -0.00000000	     -0.14755999	      1.30535925	      5.87397755	     -0.00000000	     23.69692665	    -13.32569803	    -24.13160523	     -8.47559134	      1.25822396	      0.00000000	      0.00000000	     -0.14792697	     -2.29712237	     12.76612420	     -0.00000000	     -5.57408028	      4.59371196	     -0.92588094
      0.72000000	      2.91107358	     -5.06603755	     -8.63651836	      0.26025426	      0.90789201	      0.26306412	    -24.11858850	     -0.83666051	     -4.59922804	     -9.15410518	      2.90533819	      0.00000000	      0.00000000	     -0.15976928	      0.56569726	      5.58470155	     -0.00000000	     23.26939085	    -13.27045815	    -24.49714520	     -9.06644102	      1.30293339	      0.00000000	      0.00000000	     -0.15823925	     -2.69775585	     12.14285569	     -0.00000000	     -5.72130997	      4.15868234	     -0.33881491
      0.72500000	      3.05872153	     -4.82645441	     -8.94338285	      0.26797528	      0.90796921	      0.26285280	    -24.23604981	     -1.26030867	     -4.17933655	     -9.87449796	      2.68635225	     -0.00000000	     -0.00000000	     -0.17234250	     -0.26686284	      5.31055804	      0.00000000	     22.96806048	    -13.13036214	    -24.64635906	     -9.71930649	      1.27520827	      0.00000000	      0.00000000	     -0.16963390	     -3.17704790	     11.44181039	     -0.00000000	     -5.80622441	      3.73338733	      0.00878580
      0.73000000	      3.17864221	     -4.50355272	     -9.11202994	      0.27577936	      0.90791242	      0.26241425	    -24.18385402	     -1.75547433	     -4.22706683	    -10.89291643	      2.45155633	      0.00000000	      0.00000000	     -0.19011726	     -0.96824702	      5.41760792	      0.00000000	     22.85437812	    -12.91225485	    -24.86540633	    -10.65178757	      1.23329548	      0.00000000	      0.00000000	     -0.18590876	     -3.59210649	     11.03402164	      0.00000000	     -5.81435301	      3.43804377	      0.61723411
      0.73500000	      3.37313943	     -4.12072981	     -9.35082361	      0.28358191	      0.90816686	      0.26213323	    -24.17845814	     -2.32708361	     -4.12304724	    -11.89861093	      2.22040531	      0.00000000	      0.00000000	     -0.20766994	     -1.88318983	      5.29304115	     -0.00000000	     22.49394062	    -12.53720857	    -24.94530293	    -11.22905817	      1.13104654	     -0.00000000	     -0.00000000	     -0.19598404	     -4.18880253	     10.29111978	     -0.00000000	     -5.91782988	      2.92710641	      1.11387695
      0.74000000	      3.59393233	     -3.76822551	     -9.73207135	      0.29129540	      0.90866243	      0.26226356	    -24.15440581	     -2.87169076	     -3.72634890	    -12.91328713	      1.95793398	      0.00000000	      0.00000000	     -0.22537938	     -2.94731829	      4.97540364	      0.00000000	     22.02451804	    -12.31404182	    -25.09959778	    -11.80886569	      1.17566714	     -0.00000000	     -0.00000000	     -0.20610359	     -4.80526898	      9.40206178	      0.00000000	     -6.03691890	      2.26044673	      1.50940612
      0.74500000	      3.74223427	     -3.42248661	     -9.83360938	      0.29906073	      0.90897327	      0.26184705	    -23.98987110	     -3.31684694	     -3.81342635	    -14.08452146	      1.67477695	      0.00000000	      0.00000000	     -0.24582127	     -4.02089370	      4.78661116	      0.00000000	     21.83189603	    -12.00272260	    -25.08527524	    -12.58277440	      1.12515622	      0.00000000	      0.00000000	     -0.21961084	     -5.48297966	      8.81418299	     -0.00000000	     -6.07880465	      1.77391871	      1.88370995
      0.75000000	      3.91334079	     -3.16366397	    -10.14499044	      0.30673594	      0.90951226	      0.26196532	    -23.81181150	     -3.68380469	     -3.47154543	    -15.24583461	      1.34639716	     -0.00000000	     -0.00000000	     -0.26609001	     -5.30863305	      4.36174906	     -0.00000000	     21.53671011	    -11.96434743	    -25.27893292	    -13.44682616	      1.22018032	     -0.00000000	     -0.00000000	     -0.23469139	     -5.97873152	      8.33565932	     -0.00000000	     -6.17601338	      1.47751199	      2.68668396
      0.75500000	      4.04915771	     -2.83458381	    -10.26638481	      0.31453099	      0.90993367	      0.26173956	    -23.52280698	     -4.08559303	     -3.53916989	    -16.55621303	      1.04351040	      0.00000000	      0.00000000	     -0.28896043	     -6.59436036	      4.07084036	      0.00000000	     21.33992618	    -11.75476827	    -25.30662173	    -14.29434861	      1.26890186	     -0.00000000	     -0.00000000	     -0.24948345	     -6.42388696	      7.89430484	      0.00000000	     -6.18733241	      1.10036223	      3.27798887
      0.76000000	      4.18283995	     -2.39259278	    -10.26767754	      0.32232802	      0.91036137	      0.26119955	    -23.12866445	     -4.61421797	     -3.85168180	    -18.03798668	      0.78308618	      0.00000000	      0.00000000	     -0.31482226	     -7.87225542	      3.90671664	     -0.00000000	     21.15653819	    -11.28502722	    -25.09874679	    -15.01232217	      1.25733265	      0.00000000	      0.00000000	     -0.26201445	     -6.92900187	      7.19141082	      0.00000000	     -6.14894973	      0.46176663	      3.50390688
      0.76500000	      4.29475046	     -2.11865271	    -10.37049541	      0.33004124	      0.91085881	      0.26097617	    -22.66867713	     -4.94477217	     -3.93496675	    -19.55220220	      0.46821338	     -0.00000000	     -0.00000000	     -0.34125030	     -9.32961585	      3.51452000	     -0.00000000	     20.97857381	    -11.14836919	    -25.05702494	    -15.87134167	      1.35470887	     -0.00000000	     -0.00000000	     -0.27700717	     -7.26661634	      6.82081162	     -0.00000000	     -6.14295660	      0.14969248	      4.06849834
      0.77000000	      4.34662875	     -1.78533352	    -10.19044209	      0.33783579	      0.91119040	      0.26003002	    -22.11481495	     -5.31038331	     -4.39247795	    -21.15347263	      0.24170166	      0.00000000	      0.00000000	     -0.36919775	    -10.83151350	      3.16692861	      0.00000000	     20.97420641	    -10.74709537	    -24.66729490	    -16.72014021	      1.32427074	     -0.00000000	     -0.00000000	     -0.29182150	     -7.52310452	      6.34832760	     -0.00000000	     -6.04065535	     -0.24520672	      4.18847385
